<?xml version="1.0" encoding="UTF-8"?>
<svg width="592px" height="250px" viewBox="0 0 592 250" version="1.1" xmlns="http://www.w3.org/2000/svg" xmlns:xlink="http://www.w3.org/1999/xlink">
    <!-- Generator: Sketch 61.2 (89653) - https://sketch.com -->
    <title>Artboard</title>
    <desc>Created with Sketch.</desc>
    <g id="Artboard" stroke="none" stroke-width="1" fill="none" fill-rule="evenodd">
        <text id="EXCALIDRAW" font-family="FGVirgil, FG Virgil" font-size="60" font-weight="normal" fill="#070707">
            <tspan x="128" y="145">EXCALIDRAW</tspan>
        </text>
        <text id="Sketch-hand-drawn-li" font-family="FGVirgil, FG Virgil" font-size="21" font-weight="normal" fill="#070707">
            <tspan x="167" y="178">Sketch hand-drawn like diagrams</tspan>
        </text>
        <g id="excalidraw-final-(3)" transform="translate(41.000000, 49.000000)" fill="#000000" fill-rule="nonzero">
            <g id="Group" transform="translate(30.500000, 76.500000) scale(-1, 1) rotate(-180.000000) translate(-30.500000, -76.500000) ">
                <path d="M22.1972222,150.381696 C18.0175926,147.023437 11.5787037,141.331473 6.49537037,136.436384 L2.48518519,132.622768 L3.21944444,127.613839 C3.61481481,124.881696 4.34907407,119.53125 4.80092593,115.774554 C5.30925926,112.017857 5.81759259,108.488839 5.98703704,107.976562 C6.21296296,107.293527 5.98703704,106.952009 5.36574074,106.952009 C4.29259259,106.952009 4.23611111,107.236607 7.17314815,97.8448661 C8.2462963,94.2589286 9.26296296,90.9575893 9.37592593,90.6160714 C9.48888889,90.2176339 9.94074074,90.046875 10.4490741,90.2176339 C10.9574074,90.4453125 11.2398148,90.9006696 11.0703704,91.2991071 C10.9009259,91.7544643 11.1833333,92.2098214 11.6351852,92.3805804 C12.2564815,92.6082589 12.2,93.0636161 11.2398148,94.7142857 C9.71481481,97.2756696 5.81759259,119.132812 5.59166667,126.190848 C5.42222222,131.199777 5.42222222,131.256696 7.51203704,134.102679 C9.54537037,136.891741 14.2333333,141.103795 21.462963,146.454241 C23.4962963,147.991071 25.5296296,149.698661 26.0944444,150.267857 C26.9416667,151.292411 27.337037,151.007812 34.4537037,143.38058 C38.5768519,138.997768 43.1518519,134.501116 44.6203704,133.362723 L47.3314815,131.313616 L45.2416667,126.873884 C44.112037,124.483259 39.537037,115.262277 35.0185185,106.496652 C25.5861111,88.0546875 27.5064815,89.8191964 16.5490741,89.6484375 L9.43240741,89.5915179 L7.06018519,86.859375 C4.575,83.9564732 4.23611111,82.875 5.42222222,81.0535714 C5.87407407,80.4274554 6.21296296,79.4029018 6.21296296,78.7767857 C6.21296296,77.7522321 6.60833333,77.5814732 8.86759259,77.4676339 C10.2796296,77.4107143 11.5787037,77.2399554 11.7481481,77.0691964 C11.9175926,76.8984375 12.1435185,73.3694196 12.312963,69.2142857 L12.5388889,61.7008929 L8.75462963,53.5044643 C2.48518519,39.84375 0,33.5825893 0,31.5334821 C0,30.4520089 0.225925926,29.5412946 0.451851852,29.5412946 C1.01666667,29.5412946 1.01666667,29.5982143 24.0046296,77.9229911 C34.6796296,100.34933 44.7898148,121.466518 46.4842593,124.938616 C48.1787037,128.410714 49.7037037,131.598214 49.8166667,132.053571 C49.9296296,132.565848 46.0324074,136.493304 39.8194444,142.014509 C34.2277778,147.023437 29.3138889,151.577009 28.862037,152.089286 C27.562963,153.683036 25.6425926,153.170759 22.1972222,150.381696 Z M24.1175926,84.9241071 C21.5194444,79.8582589 21.4064815,79.8013393 14.2898148,79.4598214 C8.02037037,79.1183036 7.90740741,79.1752232 7.90740741,80.3705357 C7.90740741,81.0535714 7.68148148,81.9642857 7.39907407,82.4196429 C7.06018519,82.9319196 7.28611111,83.8426339 8.07685185,85.0948661 L9.31944444,87.0301339 L14.9675926,87.0301339 C18.0740741,87.0870536 21.6324074,87.3147321 22.875,87.5424107 C24.1175926,87.7700893 25.1907407,87.8839286 25.3037037,87.8270089 C25.4166667,87.7700893 24.8518519,86.4609375 24.1175926,84.9241071 Z M19.3731481,75.8169643 C18.9212963,74.6216518 17.7351852,72.1171875 16.775,70.2388393 C15.1935185,67.0513393 15.0240741,66.9375 14.6287037,68.2466518 C14.4027778,69.0435268 14.2333333,71.3772321 14.1768519,73.4832589 C14.1203704,77.6383929 14.0074074,77.5814732 18.7518519,77.8660714 L20.2768519,77.9229911 L19.3731481,75.8169643 Z" id="Shape"></path>
                <path d="M23.8916667,136.834821 C22.875,136.094866 22.5925926,135.354911 22.5925926,133.476562 C22.5925926,131.256696 22.762037,130.915179 24.287037,130.289062 C25.812037,129.662946 26.2074074,129.719866 27.9583333,130.915179 C30.2740741,132.508929 30.3305556,132.907366 28.6361111,135.46875 C27.1675926,137.688616 25.6990741,138.087054 23.8916667,136.834821 Z M27.1111111,134.785714 C28.0148148,133.191964 27.45,131.996652 25.7555556,131.996652 C24.2305556,131.996652 23.5527778,133.533482 24.4,135.070312 C25.0777778,136.322545 26.3768519,136.208705 27.1111111,134.785714 Z" id="Shape"></path>
                <path d="M59.3055556,124.027902 C59.3055556,123.743304 58.9666667,123.458705 58.5712963,123.458705 C58.2324074,123.458705 57.2722222,121.864955 56.537963,119.929688 C54.2787037,114.010045 31.6861111,68.9866071 31.6296296,70.4095982 C31.6296296,71.1495536 31.2907407,71.6618304 30.7259259,71.6618304 C29.9351852,71.6618304 29.8222222,71.2064732 30.1611111,68.9866071 C30.5,66.4252232 30.2740741,65.8560268 22.2537037,50.1462054 C17.7351852,41.2098214 12.8777778,31.875 11.4657407,29.3705357 C9.99722222,26.7522321 8.86759259,23.90625 8.75462963,22.7109375 C8.58518519,20.6618304 8.81111111,20.3772321 13.725,16.1082589 C16.5490741,13.6037946 20.1638889,10.4732143 21.7453704,9.05022321 C28.862037,2.50446429 32.1944444,-0.113839286 33.0981481,0.0569196429 C34.4537037,0.284598214 55.4083333,22.4263393 55.4648148,23.6785714 C55.4648148,24.2477679 54.4481481,32.8995536 53.2055556,42.9174107 C51.0592593,59.9933036 49.0259259,79.9720982 49.2518519,81.9073661 C49.4212963,83.1026786 48.5740741,89.1361607 47.9527778,91.7544643 C47.4444444,93.8035714 47.6703704,94.6573661 51.737037,103.992188 C54.1092593,109.513393 57.2157407,116.28683 58.5712963,119.018973 C59.8703704,121.751116 61,124.141741 61,124.3125 C61,124.483259 60.6046296,124.597098 60.1527778,124.597098 C59.7009259,124.597098 59.3055556,124.36942 59.3055556,124.027902 Z M46.3148148,81.5089286 C46.9361111,77.5245536 48.1787037,67.9620536 49.0824074,60.2779018 C50.8333333,46.1618304 52.8666667,30.5089286 53.4314815,26.5245536 C53.7703704,24.5323661 53.5444444,24.1339286 49.8731481,20.0357143 C43.4907407,12.8069196 36.712963,5.69196429 34.3972222,3.87053571 L32.2509259,2.16294643 L21.237037,12.5223214 C11.0703704,21.9709821 10.2231481,22.9386161 10.8444444,24.0770089 C11.1833333,24.703125 14.0638889,29.9966518 17.2268519,35.8024554 C20.3898148,41.6082589 24.5694444,49.3493304 26.4898148,52.9921875 C28.4666667,56.6919643 30.2740741,59.8794643 30.612963,60.0502232 C31.0083333,60.2779018 31.1212963,54.5290179 31.0083333,42.2912946 C30.7824074,24.0200893 30.8388889,23.9631696 32.6462963,24.3616071 C32.8722222,24.3616071 33.0416667,33.5825893 33.0416667,44.7957589 L33.0416667,65.1729911 L38.9722222,77.1261161 C42.2481481,83.7287946 44.9592593,89.0223214 45.0722222,88.9658565 C45.1851852,88.9084821 45.75,85.5502232 46.3148148,81.5089286 Z" id="Shape"></path>
            </g>
        </g>
    </g>
</svg>